<svg xmlns="http://www.w3.org/2000/svg" width="256" height="256"><path fill-opacity=".212" d="M0 128.004v128.004l128.25-.254 128.25-.254.254-127.75L257.008 0H0v128.004m.485.496c0 70.4.119 99.053.265 63.672.146-35.38.146-92.98 0-128C.604 29.153.485 58.1.485 128.5" fill="#212121" fill-rule="evenodd"/><path fill-opacity=".308" d="M0 127.504v127.504l128.25-.254 128.25-.254.254-127.25L257.008 0H0v127.504m.296.496C.208 199.824.516 254.627 1 253.5c.473-1.1.891-1.437.93-.75.056.993 25.867 1.25 125.535 1.25 123.02 0 125.485-.038 126.5-1.934.695-1.299 1.035-37.109 1.035-109V36H1.046L.748 18.25C.585 8.488.381 57.875.296 128M17.02 49.752c-1.914.961-4.514 3.295-5.777 5.187l-2.298 3.438.278 48.296.277 48.295 3.765 3.766 3.765 3.766 23.801.299 23.801.3 10.917 10.95C81.553 180.072 87.16 185 88.008 185c.848 0 4.895-3.375 8.992-7.5 4.097-4.125 7.686-7.499 7.975-7.499.289.001.525 9.194.525 20.429 0 19.086.136 20.612 2.071 23.249 3.887 5.294 7.511 6.318 22.376 6.319l13.448.002 11.149 11c6.132 6.05 11.962 11 12.956 11 .994 0 6.824-4.95 12.956-11l11.149-11h21.73c24.332 0 27.221-.584 30.639-6.19 1.951-3.199 2.019-4.926 2.019-51.31 0-45.203-.11-48.18-1.879-51.08-3.877-6.359-4.365-6.42-51.515-6.42H150V81.648c0-22.613-.072-23.46-2.27-26.75-4.761-7.128-2.459-6.895-68.23-6.895-54.177 0-59.284.143-62.48 1.749m132.976 83.998c-.003 16.946-.195 19.064-1.991 22.009-3.715 6.093-6.983 7.233-20.755 7.237L115 163v46.05l2.565.975c1.411.536 8.715.975 16.232.975h13.667l9.768 9.731 9.768 9.731 9.75-9.69 9.75-9.691 24.288-.29c20.281-.243 24.444-.538 25.234-1.791 1.491-2.361 1.278-91.3-.222-92.8-.896-.896-11.933-1.2-43.5-1.2H150l-.004 18.75m23.724-5.653c-2.263 1.317-32.72 62.077-32.72 65.274 0 3.076 2.362 5.006 5.243 4.283 1.634-.41 3.456-2.963 6.506-9.112l4.236-8.542h38.03l4.236 8.542c3.05 6.149 4.872 8.702 6.506 9.112 2.881.723 5.243-1.207 5.243-4.283 0-3.443-30.539-64.054-32.914-65.325-2.327-1.245-2.135-1.248-4.366.051m-4.987 28.412c-3.703 7.431-6.733 13.731-6.733 14 0 .27 6.3.491 14 .491s14-.221 14-.491c0-1.007-13.487-27.509-14-27.509-.294 0-3.564 6.079-7.267 13.509" fill="#212121" fill-rule="evenodd"/><path fill-opacity=".223" d="M0 127.5V255l2.25-.03c2.009-.028 2.063-.14.5-1.05C1.1 252.959 1 246.657 1 143.946V34.992l126.75.254 126.75.254.255 107.916c.239 101.623.152 108.029-1.498 109.852-1.69 1.868-1.664 1.924.746 1.584l2.497-.352.254-127.25L257.008 0H0v127.5m.485.5c0 70.125.119 98.813.265 63.75.146-35.062.146-92.437 0-127.5C.604 29.188.485 57.875.485 128M15.19 51.026C9.04 54.775 9 55.133 9.002 105.718c.001 50.455-.047 50.037 6.319 54.711 2.628 1.93 4.402 2.092 26 2.385l23.179.314 11.096 10.936C81.699 180.079 87.267 185 87.969 185c.701 0 5.045-3.68 9.653-8.177l8.378-8.178v20.81c0 19.13.163 21.073 2.019 24.076 3.184 5.152 7.881 6.469 23.071 6.469h13.049l9.71 9.847c5.34 5.416 10.744 10.4 12.007 11.076 2.151 1.151 3.012.524 13.523-9.847L190.605 220h21.882c19.901 0 22.259-.183 26.049-2.018 7.829-3.79 7.617-2.133 7.271-56.809l-.307-48.328-3.735-3.422-3.736-3.423H150V82.968c0-25.746-.532-28.493-6.19-31.942-3.224-1.966-4.887-2.019-64.31-2.019s-61.086.053-64.31 2.019m3.845 8.908c-1.42 2.653-1.42 88.479 0 91.132.979 1.828 2.326 1.934 24.645 1.934h23.61l10.355 10.19L88 173.38l10.355-10.19L108.71 153h15.11c13.915 0 15.191-.153 16.145-1.934.668-1.249 1.035-17.402 1.035-45.566s-.367-44.317-1.035-45.566C138.959 58.055 137.233 58 79.5 58c-57.733 0-59.459.055-60.465 1.934m50.589 11.703c-6.473 1.987-11.211 5.09-16.423 10.753-6.581 7.152-8.549 12.42-8.632 23.11-.061 7.927.267 9.684 2.749 14.739 3.591 7.313 10.13 13.852 17.443 17.443 5.016 2.463 6.884 2.818 14.828 2.818 8.308 0 9.634-.281 15.434-3.273l6.346-3.272 3.739 3.65c3.011 2.94 4.236 3.525 6.3 3.008 1.635-.411 2.794-1.57 3.205-3.205.517-2.063-.067-3.289-3.001-6.293l-3.644-3.732 3.044-6.092c9.883-19.777-.559-43.327-22.04-49.707-6.537-1.941-12.913-1.924-19.348.053M68.5 82.383c-9.064 4.285-14.438 12.637-14.478 22.501-.031 7.539 1.715 12.535 6.134 17.555 5.142 5.842 11.439 8.687 19.216 8.682 5.544-.004 11.894-1.702 13.896-3.717.422-.425-.648-2.232-2.377-4.016-3.797-3.918-3.485-7.95.696-8.999 2.013-.505 3.252.032 5.827 2.527 3.64 3.529 4.418 3.189 6.441-2.815 2.984-8.858.06-21.175-6.479-27.292-7.444-6.965-19.573-8.824-28.876-4.426m81.498 50.367c-.001 20.64-.66 23.525-6.32 27.679-2.437 1.788-4.586 2.119-15.75 2.421l-12.928.351V185.9c0 16.322.337 23.037 1.2 23.9.827.827 5.874 1.2 16.233 1.2h15.033l10.035 10.001 10.035 10.001 9.963-10.001L187.462 211h23.569c16.998 0 23.904-.335 24.769-1.2.899-.899 1.2-12.814 1.2-47.465 0-44.717-.065-46.299-1.934-47.3-1.245-.666-16.76-1.035-43.5-1.035H150l-.002 18.75m6.932 27.39c-16.264 32.516-17.405 35.696-13.366 37.246 2.901 1.113 5.419-1.398 9.456-9.426l4.002-7.96h37.956l3.924 7.806c4.445 8.839 6.121 10.639 9.048 9.71 4.66-1.479 3.741-4.147-12.88-37.376C179.339 128.69 178.93 128 176 128c-2.93 0-3.339.69-19.07 32.14m11.803-3.631c-3.703 7.431-6.733 13.731-6.733 14 0 .27 6.3.491 14 .491s14-.221 14-.491c0-1.007-13.487-27.509-14-27.509-.294 0-3.564 6.079-7.267 13.509" fill="#212121" fill-rule="evenodd"/><path fill-opacity=".713" d="M0 17.5V35h255v108.95c0 102.686-.101 109.013-1.75 110.027-1.562.961-1.516 1.047.434.8l2.183-.277.317-127.25L256.5 0h-2.405c-2.267 0-2.31.105-.75 1.829 1.341 1.482 1.655 4.043 1.655 13.5V27H1V14.55C1 3.747 1.232 1.964 2.75 1.08 4.313.17 4.259.058 2.25.03.001 0 0 .01 0 17.5m.411.5c0 9.625.15 13.562.334 8.75.183-4.813.183-12.688 0-17.5C.561 4.437.411 8.375.411 18m14.635-7.555c-2.845 3.427 1.078 9.221 4.704 6.948C23.318 15.156 22.035 9 18 9c-.965 0-2.295.65-2.954 1.445m17.525.126c-.864.865-1.571 2.145-1.571 2.845C31 14.927 34.19 18 35.757 18 37.295 18 40 15.131 40 13.5c0-1.751-2.749-4.5-4.5-4.5-.746 0-2.064.707-2.929 1.571m17.667-.409c-2.171 2.171-1.468 5.776 1.379 7.073 2.315 1.055 2.839.92 4.527-1.165 1.677-2.071 1.74-2.613.518-4.464-1.648-2.494-4.689-3.179-6.424-1.444M15.873 50.684C9.889 54.398 10 53.36 10 105.454c0 52.268-.037 51.924 5.967 55.029 2.37 1.226 7.308 1.517 25.718 1.517h22.784l11.165 11.134c9.541 9.514 11.516 11.045 13.573 10.529 1.325-.333 5.462-3.768 9.195-7.634 3.732-3.866 6.968-7.029 7.192-7.029.223 0 .406 8.789.406 19.532 0 29.536.212 29.822 22.437 30.286l15.233.318 10.898 10.932C161.301 236.823 166.243 241 167.5 241c1.257 0 6.204-4.183 12.951-10.951l10.917-10.95 23.713-.3c26.345-.332 26.537-.381 29.557-7.517 2.038-4.814 1.989-92.846-.054-97.736-2.984-7.142-1.949-6.989-51.039-7.546l-44.045-.5-.5-24.829-.5-24.828-3.735-3.422L141.029 49l-61.264.027c-54.867.023-61.539.197-63.892 1.657m3.698 7.887C18.189 59.954 18 65.648 18 106.036c0 44.35.065 45.928 1.934 46.929 1.175.629 11.087 1.034 25.25 1.033l23.316-.002 9.882 10.103 9.883 10.102L98.399 164.1l10.135-10.1h14.299c7.944 0 15.158-.46 16.233-1.035 1.869-1.001 1.934-2.579 1.934-46.929 0-40.388-.189-46.082-1.571-47.465C138.036 57.179 131.219 57 79.5 57s-58.536.179-59.929 1.571M69.5 72.001c-5.806 1.809-13.97 7.552-17.625 12.396-5.157 6.838-7.171 13.852-6.714 23.389.45 9.384 3.223 15.684 9.796 22.257 6.62 6.62 12.859 9.345 22.445 9.804 8.734.418 14.234-.796 19.72-4.356l3.622-2.35 3.368 3.475c2.618 2.7 4.039 3.409 6.378 3.179 4.627-.454 4.615-4.079-.03-8.836l-3.71-3.799 2.03-2.85c6.042-8.487 6.912-24.179 1.886-34.023-3.823-7.487-7.725-11.506-14.881-15.328-5.507-2.941-7.337-3.39-14.785-3.624-4.675-.148-9.85.152-11.5.666m2.382 8.38c-11.62 4.152-18.858 14.003-18.876 25.691C52.984 119.609 65.646 132 79.5 132c4.393 0 13.105-2.552 14.076-4.123.318-.515-.806-2.514-2.499-4.442-3.477-3.96-3.449-3.871-2.042-6.501 1.521-2.842 5.184-2.359 8.521 1.125l2.931 3.058 1.691-2.089c2.398-2.96 4.203-11.998 3.429-17.161-2.351-15.681-19.462-26.583-33.725-21.486M149 133.453c0 12.571-.408 20.349-1.154 21.986-2.301 5.05-5.236 6.02-19.846 6.561l-13.5.5-.269 22.66c-.232 19.617-.055 22.874 1.322 24.25 1.313 1.313 4.219 1.59 16.663 1.59h15.074l10.143 9.981 10.142 9.981 9.944-9.981 9.943-9.981h23.614c21.607 0 23.755-.155 25.269-1.829 1.488-1.644 1.655-6.36 1.655-46.845 0-42.341-.109-45.114-1.829-46.671-1.641-1.486-6.197-1.655-44.5-1.655H149v19.453m24.273-4.251c-.579.714-8.131 15.45-16.782 32.747-16.527 33.043-16.891 34.18-11.165 34.865 2.389.286 3.007-.457 6.872-8.25l4.248-8.564h39.108l4.248 8.564c3.865 7.793 4.483 8.536 6.872 8.25 5.735-.686 5.374-1.784-11.808-35.859-12.935-25.65-16.804-32.518-18.454-32.753-1.148-.164-2.56.286-3.139 1m-5.039 27.307c-3.979 7.98-7.234 14.73-7.234 15 0 .27 6.75.491 15 .491s15-.221 15-.491c0-1.006-14.489-29.509-15-29.509-.293 0-3.787 6.529-7.766 14.509M1 254c0 .55.477 1 1.059 1s.781-.45.441-1-.816-1-1.059-1-.441.45-.441 1" fill="#212121" fill-rule="evenodd"/></svg>